<?xml version="1.0" standalone="no"?>
<!DOCTYPE svg PUBLIC "-//W3C//DTD SVG 20010904//EN"
 "http://www.w3.org/TR/2001/REC-SVG-20010904/DTD/svg10.dtd">
<svg version="1.0" xmlns="http://www.w3.org/2000/svg"
 width="1850.000000pt" height="1850.000000pt" viewBox="0 0 1850.000000 1850.000000"
 preserveAspectRatio="xMidYMid meet">
<metadata>
Created by potrace 1.14, written by Peter Selinger 2001-2017
</metadata>
<g transform="translate(0.000000,1850.000000) scale(0.100000,-0.100000)"
fill="#000000" stroke="none">
<path d="M12203 16760 c-2 -3 -48 -6 -101 -7 -53 -1 -131 -5 -172 -7 -210 -15
-268 -19 -297 -19 -18 -1 -33 -4 -33 -7 0 -3 -26 -5 -58 -6 -55 -1 -160 -8
-272 -18 -131 -13 -350 -26 -520 -31 -58 -2 -105 -4 -105 -6 0 -1 -31 -2 -70
-3 -38 -1 -74 -4 -80 -7 -5 -3 -26 -4 -45 -4 -19 1 -45 -2 -57 -6 -16 -6 -23
-5 -23 4 0 7 -3 8 -8 2 -8 -11 -47 -13 -58 -2 -4 4 -13 2 -21 -5 -8 -6 -34
-10 -58 -10 -25 1 -45 -2 -45 -7 0 -9 -42 -7 -59 3 -5 4 -12 2 -15 -3 -3 -5
-24 -8 -46 -7 -22 0 -40 -3 -40 -8 0 -4 -12 -5 -26 -2 -14 4 -23 3 -21 -2 3
-4 -14 -7 -39 -6 -27 1 -44 -2 -44 -10 0 -7 -4 -6 -9 3 -5 8 -11 9 -15 3 -3
-6 -20 -9 -36 -7 -17 2 -30 1 -30 -4 0 -4 -18 -7 -40 -6 -22 1 -40 -1 -40 -4
0 -3 -20 -6 -45 -5 -25 0 -48 -3 -51 -7 -2 -4 -18 -5 -34 -3 -17 3 -30 2 -30
-3 0 -4 -28 -9 -63 -11 -83 -3 -87 -4 -87 -16 0 -7 -3 -7 -8 1 -5 8 -16 8 -44
-2 -23 -8 -35 -8 -31 -2 4 7 0 8 -13 2 -10 -5 -34 -9 -51 -9 -18 0 -33 -4 -33
-8 0 -4 -10 -5 -21 -3 -12 2 -30 0 -40 -5 -12 -7 -20 -7 -24 0 -4 7 -11 7 -18
2 -17 -14 -77 -20 -84 -9 -3 5 -9 4 -13 -4 -5 -7 -34 -14 -70 -16 -34 -2 -71
-8 -82 -14 -14 -8 -18 -8 -14 0 5 7 -2 7 -21 1 -15 -5 -51 -11 -79 -13 -28 -2
-55 -6 -60 -9 -5 -3 -22 -6 -39 -7 -35 -2 -80 -8 -80 -10 0 -1 -16 -4 -35 -7
-19 -2 -73 -11 -120 -20 -47 -9 -92 -18 -100 -19 -8 -1 -24 -4 -35 -8 -11 -3
-38 -9 -60 -12 -46 -8 -70 -13 -70 -15 0 -1 -11 -3 -25 -5 -14 -1 -38 -6 -55
-10 -16 -4 -42 -8 -57 -9 -16 0 -28 -4 -28 -7 0 -6 -14 -8 -62 -11 -15 -1 -24
-6 -21 -12 4 -5 -3 -7 -15 -4 -12 4 -25 2 -28 -4 -3 -5 -12 -7 -20 -4 -8 3
-14 1 -14 -5 0 -6 -5 -7 -10 -4 -6 4 -17 1 -25 -5 -8 -7 -15 -10 -15 -7 0 3
-20 0 -45 -7 -25 -8 -45 -12 -45 -9 0 3 -6 1 -12 -4 -7 -6 -23 -9 -35 -8 -13
1 -23 -2 -23 -7 0 -5 -4 -6 -10 -3 -5 3 -10 2 -10 -4 0 -5 -8 -10 -17 -10 -38
-1 -53 -5 -53 -12 0 -5 -7 -6 -15 -3 -8 4 -15 1 -15 -6 0 -10 -3 -10 -15 0 -8
7 -15 8 -15 2 0 -8 -54 -27 -110 -38 -8 -2 -23 -7 -35 -13 -51 -24 -159 -60
-166 -55 -5 3 -9 0 -9 -5 0 -6 -5 -11 -11 -11 -6 0 -25 -6 -42 -14 -34 -15
-67 -28 -79 -31 -5 -2 -10 -4 -13 -5 -3 -1 -8 -3 -12 -4 -5 -1 -22 -9 -39 -19
-17 -9 -34 -13 -38 -10 -3 4 -6 1 -6 -5 0 -7 -9 -12 -19 -12 -11 0 -21 -6 -24
-12 -2 -7 -4 -1 -4 15 0 15 4 27 9 27 6 0 6 6 -1 14 -8 10 -9 15 -1 18 6 2 12
10 13 18 4 28 29 80 39 80 5 0 6 5 2 12 -4 6 1 17 10 24 10 7 19 19 20 28 1 9
12 27 24 41 13 15 17 25 9 25 -8 0 -8 3 2 9 16 10 23 71 9 71 -5 0 -6 5 -3 10
3 6 1 10 -6 10 -7 0 -9 3 -6 6 13 13 -93 75 -131 76 -26 0 -91 -10 -102 -17
-6 -3 -18 -8 -27 -10 -31 -6 -157 -56 -170 -67 -7 -6 -13 -8 -13 -4 0 3 -22
-3 -49 -14 -27 -10 -52 -16 -55 -12 -4 3 -11 1 -15 -6 -4 -7 -18 -14 -29 -15
-12 -1 -22 -5 -22 -10 0 -4 -4 -6 -8 -3 -5 3 -19 -1 -33 -8 -13 -7 -30 -11
-37 -8 -6 2 -12 0 -12 -5 0 -6 -7 -10 -15 -11 -8 -1 -22 -3 -30 -4 -8 -1 -15
-5 -15 -9 0 -4 -9 -6 -20 -4 -11 2 -20 0 -20 -4 0 -8 -30 -19 -75 -28 -10 -2
-22 -7 -25 -11 -3 -4 -14 -9 -25 -10 -11 -2 -26 -9 -33 -14 -7 -6 -15 -8 -19
-4 -3 3 -17 -1 -30 -9 -13 -9 -28 -13 -32 -10 -5 3 -11 1 -13 -5 -2 -6 -12
-12 -23 -14 -11 -2 -42 -14 -70 -27 -27 -12 -52 -23 -55 -24 -3 0 -14 -6 -25
-12 -11 -6 -24 -12 -30 -13 -5 -1 -28 -12 -50 -23 -22 -12 -43 -20 -47 -19 -5
1 -8 -2 -8 -8 0 -5 -7 -10 -15 -10 -8 0 -15 -4 -15 -10 0 -5 -7 -10 -15 -10
-8 0 -31 -11 -51 -25 -20 -14 -40 -22 -45 -19 -5 3 -9 0 -9 -6 0 -7 -7 -9 -16
-6 -8 3 -12 2 -9 -4 3 -6 -1 -10 -9 -10 -8 0 -22 -7 -30 -16 -9 -8 -16 -13
-16 -10 0 3 -15 -3 -32 -14 -18 -11 -55 -31 -83 -46 -27 -15 -53 -32 -57 -38
-5 -6 -8 -7 -8 -1 0 6 -3 6 -8 0 -4 -6 -28 -24 -54 -40 -27 -17 -48 -34 -48
-38 0 -5 -4 -6 -9 -3 -4 3 -16 -3 -26 -14 -10 -11 -24 -20 -31 -20 -7 0 -18
-8 -23 -17 -6 -10 -11 -14 -11 -10 0 4 -10 -1 -22 -12 -11 -11 -26 -18 -31
-14 -6 3 -7 1 -3 -5 4 -7 3 -12 -3 -12 -6 0 -19 -10 -31 -22 -11 -12 -20 -18
-20 -14 0 5 -8 -2 -18 -14 -11 -14 -23 -19 -35 -15 -9 4 -14 11 -11 16 3 5 11
6 17 2 7 -4 6 0 -2 10 -12 15 -11 17 3 17 10 0 15 4 11 9 -3 5 -1 12 5 16 6 4
8 10 5 15 -3 5 1 15 9 23 8 8 12 17 9 21 -4 3 -2 6 4 6 6 0 13 10 17 23 7 30
8 30 23 45 7 7 14 20 14 28 1 8 2 20 3 27 1 6 -2 17 -7 24 -5 7 -6 16 -3 21 3
5 -17 19 -44 32 -28 13 -50 27 -50 32 0 4 -5 8 -12 8 -6 0 -8 -3 -5 -7 9 -9
-52 -35 -64 -27 -5 3 -9 0 -9 -5 0 -6 -9 -11 -19 -11 -11 0 -23 -5 -26 -10 -4
-6 -10 -8 -15 -5 -5 3 -11 1 -15 -5 -4 -6 -11 -8 -16 -5 -5 4 -9 1 -9 -4 0 -6
-3 -10 -7 -9 -5 1 -30 -9 -58 -21 -27 -13 -52 -24 -55 -24 -3 0 -22 -11 -42
-24 -21 -13 -38 -20 -38 -16 0 5 -4 3 -8 -3 -9 -14 -74 -49 -84 -46 -5 1 -8
-2 -8 -8 0 -5 -7 -7 -15 -4 -8 4 -15 1 -15 -5 0 -6 -6 -11 -13 -11 -7 0 -29
-9 -50 -20 -20 -11 -37 -17 -37 -13 0 3 -9 -2 -20 -12 -11 -10 -23 -15 -27
-12 -3 4 -13 -2 -21 -14 -8 -11 -20 -18 -28 -15 -8 3 -14 1 -14 -4 0 -5 -11
-12 -25 -16 -14 -3 -23 -10 -20 -14 3 -4 -7 -11 -20 -14 -16 -4 -23 -11 -19
-18 5 -7 3 -8 -6 -3 -8 5 -18 1 -27 -11 -8 -10 -17 -18 -21 -18 -9 2 -78 -45
-109 -73 -13 -13 -26 -23 -28 -23 -6 0 -49 -36 -81 -68 -13 -13 -24 -20 -24
-17 0 3 -13 -7 -29 -22 -47 -46 -135 -124 -151 -133 -8 -6 -11 -10 -6 -10 5 0
-7 -13 -27 -29 -20 -15 -34 -31 -30 -35 3 -3 -1 -6 -10 -6 -8 0 -17 -4 -19
-10 -3 -8 -77 -92 -175 -196 -17 -19 -28 -34 -25 -34 4 0 -5 -11 -20 -24 -16
-13 -28 -27 -28 -32 0 -5 -9 -16 -19 -24 -11 -7 -18 -17 -16 -21 3 -4 -2 -10
-11 -13 -8 -3 -13 -10 -10 -15 3 -5 -6 -17 -19 -27 -14 -10 -25 -22 -25 -26 0
-5 -8 -16 -17 -26 -27 -29 -53 -62 -53 -67 0 -9 -81 -110 -91 -113 -5 -2 -9
-10 -9 -18 0 -8 -3 -14 -8 -14 -4 0 -13 -14 -20 -30 -8 -17 -17 -28 -21 -26
-4 3 -14 -10 -21 -29 -8 -19 -17 -35 -21 -35 -4 0 -10 -11 -13 -25 -4 -14 -11
-25 -17 -25 -6 0 -8 -4 -5 -9 3 -4 -3 -19 -14 -31 -11 -12 -17 -27 -14 -31 3
-5 1 -9 -4 -9 -10 0 -36 -58 -33 -72 0 -5 -3 -8 -9 -8 -5 0 -10 -9 -10 -20 0
-11 -5 -20 -11 -20 -5 0 -8 -4 -4 -9 3 -5 1 -12 -5 -16 -6 -4 -8 -10 -5 -15 3
-5 1 -11 -4 -14 -4 -3 -23 -36 -42 -73 -18 -38 -38 -71 -44 -75 -6 -5 -5 -8 4
-8 10 0 9 -5 -5 -17 -10 -10 -21 -27 -23 -38 -1 -11 -8 -29 -14 -40 -6 -11
-12 -22 -12 -25 -2 -7 -24 -61 -34 -85 -24 -53 -39 -103 -34 -109 4 -3 1 -6
-6 -6 -7 0 -9 -4 -6 -10 3 -5 1 -10 -5 -10 -6 0 -9 -4 -6 -8 2 -4 -7 -41 -21
-82 -14 -41 -27 -86 -30 -100 -8 -42 -11 -55 -13 -55 -1 0 -4 -11 -7 -25 -7
-38 -11 -55 -13 -57 -2 -2 -4 -7 -5 -13 -1 -5 -3 -11 -4 -12 -4 -5 -13 -62
-14 -90 -1 -16 -5 -28 -9 -28 -3 0 -5 -8 -3 -17 1 -10 -1 -23 -6 -28 -4 -6 -8
-20 -8 -30 0 -22 -8 -80 -11 -80 -1 0 -3 -13 -5 -30 -11 -82 -15 -107 -20
-116 -4 -5 -1 -9 5 -9 6 0 5 -12 -4 -35 -9 -22 -11 -37 -5 -41 6 -3 6 -10 1
-17 -10 -13 -12 -38 -15 -174 -1 -46 -5 -83 -8 -83 -3 0 -5 -29 -4 -65 0 -36
-3 -65 -8 -65 -4 0 -5 -5 -1 -11 8 -14 13 -66 14 -147 0 -34 5 -74 10 -87 6
-17 6 -25 -1 -25 -6 0 -8 -4 -5 -9 6 -10 14 -55 20 -116 2 -22 6 -47 9 -55 5
-15 7 -32 8 -77 1 -13 5 -23 9 -23 5 0 7 -9 5 -20 -2 -11 0 -22 5 -25 5 -3 7
-14 5 -25 -2 -11 -1 -20 3 -20 4 0 8 -8 9 -17 1 -19 5 -39 21 -96 6 -20 7 -38
4 -41 -3 -3 0 -6 7 -6 7 0 11 -6 8 -13 -3 -7 1 -24 9 -38 7 -13 13 -34 14 -46
0 -13 4 -23 9 -23 6 0 8 -8 7 -17 -2 -10 2 -40 9 -68 15 -58 26 -112 28 -137
1 -10 5 -18 10 -18 5 0 7 -7 3 -15 -3 -8 0 -15 6 -15 6 0 9 -3 5 -6 -3 -3 1
-25 10 -47 8 -23 16 -51 19 -62 5 -28 38 -119 44 -125 3 -3 7 -14 8 -25 2 -11
8 -24 13 -30 5 -5 9 -17 9 -27 0 -10 4 -18 8 -18 4 0 9 -11 10 -24 1 -13 11
-41 23 -61 l22 -36 -42 2 c-22 2 -41 8 -41 13 0 6 -4 5 -9 -3 -6 -9 -14 -10
-22 -5 -19 12 -68 14 -75 2 -3 -5 -11 -4 -19 2 -8 7 -19 9 -25 5 -5 -3 -10 -2
-10 3 0 13 -33 10 -42 -3 -5 -7 -8 -6 -8 1 0 6 -17 9 -43 7 -23 -2 -57 -3 -74
-3 -18 -1 -33 -5 -33 -11 0 -6 -5 -7 -12 -2 -17 10 -78 11 -78 1 0 -4 -7 -8
-15 -8 -8 0 -15 6 -15 13 0 7 -3 8 -8 2 -7 -10 -15 -13 -60 -20 -15 -2 -37 -6
-50 -9 -13 -3 -22 0 -22 7 0 8 -3 7 -9 -2 -5 -7 -27 -14 -49 -15 -22 0 -38 -4
-36 -8 3 -5 -6 -9 -20 -9 -26 -1 -44 -5 -48 -9 -2 -1 -10 -3 -18 -5 -54 -12
-78 -16 -96 -19 -11 -2 -25 -6 -31 -9 -5 -3 -20 -8 -34 -11 -43 -8 -174 -58
-180 -68 -3 -5 -12 -10 -20 -11 -8 -2 -36 -15 -61 -30 -26 -15 -52 -27 -58
-27 -6 0 -9 -4 -6 -9 3 -5 -12 -18 -34 -29 -22 -10 -37 -22 -33 -26 3 -3 -1
-6 -10 -6 -10 0 -17 -4 -17 -10 0 -5 -20 -23 -45 -40 -25 -17 -62 -46 -82 -65
-21 -19 -42 -35 -46 -35 -5 0 -5 -4 -2 -10 3 -5 -3 -10 -14 -10 -14 0 -19 -5
-15 -15 4 -9 0 -15 -10 -15 -9 0 -16 -3 -16 -7 0 -5 -19 -29 -43 -54 -48 -52
-80 -96 -90 -121 -3 -10 -11 -18 -17 -18 -6 0 -9 -4 -5 -9 3 -5 1 -13 -5 -16
-10 -6 -82 -142 -78 -147 1 -2 -5 -14 -12 -28 -8 -14 -13 -28 -12 -32 1 -5 -2
-8 -7 -8 -6 0 -8 -9 -6 -20 2 -11 0 -20 -4 -20 -4 0 -13 -24 -20 -52 -8 -29
-16 -57 -20 -63 -3 -5 -7 -21 -8 -35 -2 -31 -10 -67 -18 -80 -3 -6 -1 -10 5
-10 6 0 8 -5 3 -12 -8 -15 -12 -28 -18 -78 -14 -107 -17 -126 -27 -137 -6 -8
-6 -13 -1 -13 11 0 13 -30 3 -45 -4 -5 -6 -31 -6 -57 1 -27 -1 -48 -4 -48 -3
0 -4 -73 -2 -162 4 -234 5 -238 16 -238 6 0 4 -5 -4 -10 -12 -8 -12 -10 -1
-10 11 0 11 -3 1 -15 -10 -12 -10 -15 0 -15 7 0 10 -7 6 -16 -3 -8 -1 -25 5
-36 8 -15 8 -22 -1 -28 -9 -6 -9 -9 0 -15 6 -4 9 -13 6 -21 -3 -7 0 -16 6 -20
7 -4 6 -9 -3 -15 -10 -6 -11 -9 -1 -9 7 0 12 -14 12 -38 0 -21 6 -44 13 -51
10 -11 9 -12 -1 -6 -11 6 -12 3 -3 -13 6 -12 11 -25 10 -29 -1 -4 0 -10 1 -13
1 -3 4 -18 5 -35 2 -16 4 -30 5 -30 3 0 9 -93 12 -160 1 -22 6 -43 12 -47 7
-5 7 -8 -2 -8 -8 0 -10 -5 -6 -12 4 -7 9 -30 10 -53 1 -22 2 -40 4 -40 1 0 3
-16 5 -35 17 -176 18 -181 28 -198 5 -7 3 -12 -5 -12 -9 0 -9 -3 -2 -8 10 -7
13 -17 15 -59 0 -10 3 -25 6 -33 3 -8 7 -22 9 -30 16 -88 67 -276 91 -340 4
-8 5 -18 5 -22 -1 -5 3 -8 9 -8 5 0 8 -4 5 -8 -3 -5 13 -55 36 -113 22 -57 46
-119 52 -137 7 -18 18 -38 24 -44 6 -6 8 -17 5 -24 -3 -8 0 -14 6 -14 6 0 11
-9 11 -19 0 -11 5 -23 10 -26 5 -3 10 -12 10 -19 0 -14 134 -270 150 -286 15
-15 50 -71 50 -80 0 -5 7 -10 17 -10 9 0 13 -3 10 -6 -11 -11 50 -81 177 -202
36 -34 66 -60 66 -56 0 4 8 -3 19 -14 10 -12 26 -22 35 -22 9 0 16 -7 16 -15
0 -8 3 -14 8 -13 9 1 95 -38 106 -49 4 -4 11 -8 14 -9 4 0 21 -7 37 -14 36
-16 32 -15 70 -24 17 -4 37 -10 45 -13 17 -6 24 -8 95 -17 28 -4 64 -10 80
-13 44 -9 730 -4 800 6 33 5 62 7 64 5 3 -3 6 -26 7 -52 1 -26 3 -47 4 -47 1
0 3 -25 6 -55 2 -30 6 -68 8 -85 2 -16 7 -59 11 -95 3 -36 10 -66 15 -68 4 -2
5 -12 3 -24 -4 -11 0 -24 8 -29 11 -7 11 -9 1 -9 -7 0 -10 -4 -7 -10 3 -5 8
-22 10 -37 2 -16 6 -44 10 -63 4 -19 8 -44 10 -55 1 -11 3 -20 5 -20 1 0 3
-13 5 -30 2 -16 18 -100 36 -185 17 -85 32 -161 32 -167 0 -7 3 -13 6 -13 4 0
8 -11 9 -25 3 -35 6 -49 13 -55 4 -3 8 -18 10 -35 2 -16 7 -36 12 -43 5 -6 7
-12 4 -12 -4 0 0 -18 8 -39 7 -22 11 -42 8 -45 -4 -3 -1 -6 5 -6 6 0 9 -7 6
-15 -4 -8 -2 -15 3 -15 5 0 9 -8 10 -17 1 -10 7 -31 14 -48 13 -33 16 -40 23
-72 2 -11 12 -35 20 -52 9 -17 13 -31 10 -31 -4 0 1 -10 12 -22 10 -12 13 -18
6 -14 -7 4 -4 -8 7 -27 11 -19 17 -38 14 -41 -4 -3 -1 -6 6 -6 7 0 10 -4 6 -9
-3 -5 0 -15 7 -23 7 -7 15 -20 17 -28 13 -46 27 -80 33 -80 5 0 8 -7 8 -16 0
-8 3 -13 8 -11 4 3 8 -7 9 -21 0 -15 6 -28 12 -30 6 -2 11 -8 11 -13 0 -13 81
-143 91 -147 5 -2 7 -8 3 -13 -3 -5 0 -9 5 -9 6 0 11 -5 11 -12 0 -12 77 -118
94 -130 6 -4 7 -8 2 -8 -5 0 1 -8 12 -19 12 -10 22 -22 22 -26 0 -9 2 -11 74
-88 24 -27 46 -51 47 -55 6 -21 25 -42 37 -42 7 0 12 -3 10 -7 -3 -8 79 -93
84 -87 2 1 14 -13 28 -32 14 -18 30 -34 36 -34 6 0 22 -12 35 -28 14 -15 42
-40 63 -57 36 -29 46 -37 95 -77 12 -10 26 -18 31 -18 6 0 10 -4 10 -10 0 -5
4 -10 10 -10 10 0 37 -20 71 -52 9 -9 20 -14 23 -10 3 3 6 0 6 -6 0 -7 7 -12
15 -12 8 0 15 -4 15 -10 0 -5 5 -10 10 -10 6 0 20 -9 32 -20 12 -11 28 -20 35
-20 7 0 13 -5 13 -11 0 -5 5 -7 10 -4 5 3 10 3 10 -2 0 -9 62 -47 72 -45 5 1
8 -3 8 -8 0 -6 7 -10 15 -10 8 0 15 -4 15 -10 0 -5 6 -10 13 -10 12 0 26 -9
74 -50 7 -5 17 -10 23 -10 5 0 10 -4 10 -10 0 -5 4 -10 10 -10 5 0 18 -6 27
-14 52 -43 114 -86 123 -86 6 0 10 -4 10 -10 0 -5 7 -10 15 -10 8 0 15 -5 15
-11 0 -5 4 -8 9 -5 5 3 14 -1 21 -9 7 -8 18 -15 25 -15 7 0 16 -7 19 -16 3 -8
10 -12 16 -9 5 3 10 2 10 -2 0 -5 17 -16 38 -25 46 -21 95 -50 103 -61 3 -4
16 -9 27 -10 12 -1 22 -4 22 -7 0 -4 16 -12 35 -20 19 -8 35 -17 35 -22 0 -4
4 -7 8 -5 4 1 28 -8 52 -20 25 -11 65 -30 90 -41 25 -11 61 -27 82 -36 20 -9
41 -16 47 -16 6 0 11 -5 11 -12 0 -6 3 -9 6 -5 3 3 29 -3 58 -15 28 -11 56
-21 61 -22 6 -1 27 -10 49 -19 21 -9 47 -17 57 -17 10 0 20 -4 23 -9 3 -4 20
-12 38 -16 18 -4 38 -9 43 -10 6 -2 17 -4 25 -6 8 -2 17 -6 20 -9 6 -7 90 -31
113 -33 9 -1 17 -5 17 -10 0 -5 6 -7 13 -4 6 2 24 -2 39 -9 15 -8 39 -15 53
-16 14 -1 25 -7 25 -12 0 -5 3 -7 6 -4 3 4 20 2 37 -3 18 -6 40 -12 50 -15 39
-10 58 -14 77 -18 11 -3 24 -7 28 -10 5 -3 24 -8 43 -11 19 -4 39 -8 44 -9 6
-1 16 -5 23 -9 6 -5 12 -6 12 -3 0 2 29 -4 65 -14 36 -10 68 -19 70 -19 3 -1
6 -1 8 -2 1 0 12 -2 25 -5 12 -2 32 -6 45 -8 12 -3 22 -5 22 -6 0 -1 13 -4 65
-14 14 -2 25 -5 25 -6 0 -1 11 -4 25 -7 38 -7 55 -11 55 -13 0 -1 34 -7 78
-13 13 -2 28 -6 33 -10 6 -3 27 -7 47 -9 21 -1 37 -5 37 -8 0 -4 6 -7 13 -8 6
0 23 -3 37 -7 14 -3 34 -8 45 -9 11 -2 20 -4 20 -5 0 -2 11 -5 25 -8 41 -8 55
-11 55 -14 0 -1 14 -3 30 -4 17 -2 30 -4 30 -5 0 -1 7 -3 15 -5 47 -12 68 -16
90 -20 47 -8 55 -11 69 -19 10 -7 12 -5 6 3 -6 10 -3 11 12 2 11 -5 37 -11 57
-13 20 -1 36 -5 36 -8 0 -3 15 -6 33 -7 43 -4 60 -7 74 -16 7 -5 17 -5 23 -2
5 3 10 1 10 -5 0 -6 5 -8 10 -5 6 4 17 1 25 -5 8 -7 15 -10 15 -7 0 3 15 1 33
-4 17 -6 37 -11 42 -12 6 -2 15 -5 20 -8 6 -3 22 -5 38 -4 15 0 27 -2 27 -5 0
-4 6 -7 13 -7 18 -1 67 -11 104 -22 17 -5 34 -7 37 -4 2 3 10 1 17 -3 7 -4 25
-9 41 -11 15 -1 67 -12 115 -22 97 -22 145 -31 183 -36 14 -2 36 -6 50 -10 14
-3 43 -8 65 -11 22 -3 56 -7 75 -10 19 -3 55 -8 80 -11 25 -3 59 -7 75 -9 58
-7 170 -17 210 -18 22 0 43 -5 47 -11 5 -6 8 -6 8 2 0 13 18 12 39 -1 11 -7
12 -6 6 5 -7 11 -6 12 6 3 15 -12 217 -13 235 -2 6 4 14 4 18 0 10 -9 276 -10
276 0 0 8 21 5 37 -5 6 -4 14 -4 17 1 6 10 57 9 75 -2 10 -6 12 -5 7 2 -8 13
12 15 92 13 23 0 42 3 42 7 0 4 9 8 20 8 11 0 20 -4 20 -9 0 -5 11 -2 24 7 14
9 27 12 30 8 2 -4 23 -6 45 -4 23 2 39 7 37 11 -3 4 4 7 15 7 10 0 19 -4 19
-8 0 -4 11 -3 24 2 13 5 33 9 43 9 52 2 93 6 93 11 0 5 30 8 92 10 15 1 30 6
34 11 3 5 9 7 14 4 4 -3 52 4 106 15 53 11 99 18 102 15 3 -3 10 -1 16 4 6 5
29 12 51 15 22 4 51 8 65 11 14 2 36 6 50 10 14 3 36 8 49 11 14 3 28 7 33 10
9 6 69 16 101 17 9 1 17 5 17 10 0 5 6 7 14 4 8 -3 17 -3 20 1 7 7 31 13 59
15 9 1 17 6 17 11 0 5 3 6 6 3 4 -3 15 -2 25 4 14 7 19 6 19 -2 0 -8 7 -6 18
4 10 10 22 14 25 10 4 -3 7 -2 7 4 0 5 10 9 23 8 12 -1 27 1 32 5 6 4 25 11
43 15 21 4 30 11 25 18 -4 8 -1 7 9 -1 11 -9 18 -10 23 -2 3 6 11 8 16 5 5 -4
9 -1 9 5 0 6 4 9 9 5 5 -3 13 0 17 6 4 8 9 7 15 -2 6 -10 9 -11 9 -1 0 6 9 12
20 12 11 0 20 4 20 10 0 5 3 9 8 7 11 -3 166 46 173 56 3 5 8 8 10 6 3 -2 41
8 59 15 32 14 62 26 67 26 16 0 219 85 225 94 4 6 8 8 8 4 0 -10 60 12 60 22
0 5 8 7 17 6 10 -2 31 5 48 16 16 10 38 18 48 18 9 0 17 5 17 10 0 6 9 10 20
10 11 0 20 5 20 11 0 5 5 7 10 4 6 -3 16 -3 23 2 6 4 18 8 26 10 8 1 18 8 22
15 5 7 9 9 9 4 0 -5 7 -3 15 4 8 7 15 9 15 5 0 -5 10 0 22 11 13 12 18 13 13
4 -6 -10 -2 -9 12 3 11 10 30 19 42 20 11 1 21 5 21 9 0 4 9 8 20 8 11 0 20 5
20 11 0 5 4 8 9 4 5 -3 12 -1 16 5 3 5 12 10 19 10 8 0 31 8 52 17 22 9 42 17
46 17 3 1 9 4 13 8 4 4 13 4 21 1 8 -3 14 -1 14 5 0 6 21 18 48 28 26 10 50
22 53 27 3 5 10 9 15 9 5 0 27 10 49 21 22 12 43 20 48 19 4 -1 7 3 7 9 0 5 4
8 9 5 4 -3 19 3 31 14 21 18 27 21 45 20 3 -1 13 6 21 15 9 8 22 15 30 15 8 0
14 5 14 11 0 6 6 9 14 6 8 -3 17 1 20 9 3 8 12 14 21 14 8 0 15 5 15 12 0 6 3
8 6 5 4 -3 18 3 32 13 13 11 31 20 38 20 8 0 14 4 14 8 0 4 12 13 28 20 44 21
98 52 88 52 -5 0 12 11 38 25 27 14 54 31 61 39 7 7 27 19 44 26 18 7 28 17
24 24 -3 6 -3 8 2 4 4 -4 14 -3 22 3 7 6 13 8 13 3 0 -4 6 0 13 9 6 9 18 17
26 19 7 2 25 13 39 25 14 13 31 23 38 23 8 0 14 3 14 8 0 4 17 16 37 27 20 11
50 31 65 43 15 13 28 21 28 17 0 -3 6 0 13 7 8 7 26 22 42 33 15 11 37 29 49
40 11 12 38 32 58 46 21 14 35 28 32 31 -3 4 3 9 14 12 11 4 23 14 26 22 3 8
10 12 16 9 5 -3 10 1 10 10 0 9 4 14 9 10 5 -3 12 4 16 15 3 11 11 20 17 20 8
0 38 25 110 92 10 10 23 18 28 18 6 0 10 4 10 9 0 13 58 70 65 63 3 -3 5 -1 5
5 0 6 36 47 80 92 45 44 78 81 73 81 -4 0 8 11 27 25 19 14 30 25 25 25 -5 0
1 7 13 16 12 8 20 19 18 23 -3 4 6 14 19 21 13 7 22 17 19 22 -3 4 0 8 6 8 6
0 8 5 5 10 -3 6 1 10 9 10 9 0 16 4 16 9 0 6 10 21 23 34 52 58 72 82 69 89
-1 4 7 12 18 18 11 6 18 15 15 21 -4 5 1 9 10 9 9 0 14 4 11 9 -3 4 3 16 14
26 11 10 20 22 20 28 0 5 8 17 18 26 9 9 23 28 31 43 8 16 18 28 23 28 4 0 8
7 8 15 0 8 5 15 10 15 6 0 10 7 10 15 0 8 5 15 10 15 6 0 10 6 10 14 0 8 7 21
15 29 8 8 24 33 36 56 11 22 25 41 31 41 5 0 7 3 5 7 -6 11 28 74 37 68 3 -3
4 -2 1 1 -2 4 1 16 7 28 7 11 13 23 14 26 1 3 5 15 9 28 4 12 11 22 16 22 5 0
9 6 9 14 0 8 6 21 13 28 12 14 18 31 21 58 0 8 6 18 11 22 6 4 10 13 11 20 0
7 7 27 14 43 7 17 14 32 14 35 1 3 6 19 13 35 23 61 26 70 30 90 2 11 8 22 13
23 6 2 8 7 6 11 -3 4 4 36 15 72 23 72 31 106 33 132 0 9 4 17 9 17 5 0 7 6 4
14 -3 7 -2 17 3 22 9 9 21 62 24 102 0 12 4 22 7 22 3 0 6 6 6 13 0 6 4 26 7
42 4 17 9 39 11 50 9 49 15 68 26 81 7 8 9 17 6 21 -4 3 -1 15 5 27 11 21 20
75 20 128 0 15 3 26 7 23 4 -2 6 16 5 41 -2 28 2 44 9 44 7 0 6 4 -3 10 -8 5
-10 10 -5 10 6 0 10 29 10 66 1 46 5 68 15 74 13 8 13 10 0 10 -12 0 -13 2 -1
9 9 6 12 20 9 40 -2 17 0 33 6 35 7 3 7 5 1 5 -5 1 -9 20 -9 42 1 30 7 45 20
52 11 6 22 15 26 21 5 7 8 7 8 1 0 -13 93 -14 102 0 5 6 8 5 8 -4 0 -11 3 -11
15 -1 8 7 15 8 15 3 0 -5 9 -9 20 -10 11 -1 20 1 20 5 0 10 83 8 99 -2 10 -6
12 -6 6 3 -5 9 1 11 24 8 20 -3 31 -1 31 6 0 7 5 6 10 -3 7 -11 10 -12 10 -2
0 10 8 12 30 7 20 -4 30 -3 30 5 0 9 3 10 13 1 8 -6 17 -8 21 -4 3 4 30 8 59
10 28 2 69 4 90 5 20 2 37 5 37 8 0 4 14 7 30 9 69 4 80 6 80 12 0 4 7 10 16
13 10 4 13 2 8 -6 -5 -7 -3 -8 7 -2 8 5 19 9 24 9 18 1 150 47 163 58 7 5 15
7 19 4 3 -4 17 3 31 13 13 11 33 20 42 20 10 0 20 7 24 15 3 8 12 15 20 15 8
0 28 12 45 26 17 14 31 23 31 20 0 -3 17 10 37 29 20 19 41 32 45 29 4 -3 8 2
8 11 0 9 5 13 10 10 6 -3 10 -1 10 4 0 6 6 11 13 11 8 0 20 11 27 25 7 13 16
23 20 22 18 -5 190 151 190 173 0 6 5 8 11 5 6 -4 13 2 16 14 3 11 10 18 16
14 6 -4 8 0 4 11 -4 9 -3 15 2 12 9 -6 61 63 61 81 0 6 7 14 16 17 8 3 13 10
10 15 -3 5 1 12 10 15 8 3 13 10 10 15 -4 5 -3 11 2 13 4 1 28 45 52 96 24 50
48 92 53 92 6 0 8 3 4 6 -3 3 8 28 24 55 16 28 29 56 29 64 0 7 3 15 8 17 4 2
17 22 30 46 16 29 19 42 10 42 -8 0 -6 5 5 11 9 6 15 14 12 19 -3 5 -1 11 5
15 6 4 8 10 5 15 -3 4 2 11 11 14 8 3 13 10 9 15 -3 5 -1 12 5 16 6 4 8 10 5
15 -3 5 -1 11 5 15 6 4 8 11 5 16 -4 5 -1 9 6 9 7 0 10 3 6 6 -3 4 0 19 8 34
8 15 11 30 8 34 -4 3 0 6 7 6 7 0 10 3 7 7 -4 3 0 17 8 30 9 13 13 23 11 23
-3 0 6 29 19 65 14 36 23 65 20 65 -3 0 1 13 9 29 8 15 17 39 20 52 3 13 21
76 41 139 35 114 44 146 50 185 2 11 4 22 5 25 1 3 2 8 1 13 0 4 3 7 7 7 4 0
8 10 8 23 0 22 10 67 21 97 3 8 7 26 8 40 1 14 4 26 5 28 5 4 7 22 9 53 0 16
5 28 10 25 4 -3 8 7 8 22 0 15 3 41 6 57 4 17 9 44 12 60 15 92 18 113 20 140
2 17 6 37 9 46 4 9 5 28 2 42 -3 15 -1 27 3 27 4 0 7 25 6 56 0 30 2 57 5 59
3 2 4 97 3 212 -3 252 -6 309 -15 319 -5 4 -3 13 3 21 7 8 8 13 1 13 -5 0 -9
14 -8 30 1 16 -1 30 -5 30 -3 0 -5 11 -4 25 2 14 -1 25 -6 25 -6 0 -6 7 0 19
6 10 7 21 4 25 -4 4 -8 15 -10 26 -2 11 -4 28 -6 38 -1 9 -6 23 -10 30 -5 7
-3 12 5 12 11 0 11 2 0 9 -7 4 -14 19 -16 32 -2 13 -7 32 -11 42 -4 10 -5 21
-2 24 4 3 1 15 -5 27 -13 23 -18 39 -21 73 -1 12 -6 21 -12 20 -5 -1 -9 5 -10
13 0 19 -56 134 -67 138 -4 2 -8 8 -8 13 0 6 -9 19 -20 31 -11 12 -20 28 -20
35 0 8 -4 11 -10 8 -5 -3 -10 0 -10 7 0 8 -22 38 -50 68 -27 30 -50 58 -50 63
0 4 -4 6 -9 3 -5 -3 -11 1 -15 9 -3 8 -12 15 -21 15 -8 0 -15 6 -15 14 0 8
-13 20 -29 27 -16 7 -28 16 -25 20 2 4 -4 10 -14 14 -9 3 -17 5 -17 4 0 -2
-12 8 -27 21 -40 38 -58 51 -58 45 0 -4 -7 1 -16 9 -8 9 -22 16 -30 16 -8 0
-14 4 -14 9 0 5 -16 15 -35 22 -19 7 -35 17 -35 22 0 4 -4 5 -10 2 -5 -3 -10
-1 -10 5 0 6 -4 8 -10 5 -5 -3 -10 -1 -10 4 0 6 -6 11 -13 11 -18 0 -67 23
-67 32 0 4 -6 5 -14 2 -7 -3 -21 2 -30 11 -9 9 -16 14 -16 11 0 -3 -16 2 -35
10 -19 8 -35 11 -35 8 0 -4 -7 -1 -15 6 -8 6 -19 9 -25 5 -5 -3 -10 -1 -10 4
0 6 -8 11 -18 11 -10 0 -22 3 -26 7 -6 6 -20 9 -63 15 -7 1 -13 4 -13 8 0 3
-8 6 -17 7 -30 2 -72 11 -81 17 -5 3 -25 6 -45 8 -21 1 -37 5 -37 9 0 5 -9 6
-20 4 -11 -2 -20 0 -20 5 0 5 -10 7 -21 5 -12 -3 -27 -1 -32 2 -12 7 -16 8
-132 19 -105 9 -303 9 -385 -1 -36 -4 -76 -9 -90 -10 -14 -2 -25 -4 -25 -5 0
-1 -11 -4 -25 -6 -41 -6 -55 -9 -65 -15 -5 -4 -18 -5 -27 -4 -10 2 -18 -1 -18
-6 0 -6 -4 -8 -9 -4 -5 3 -12 1 -15 -3 -3 -5 -17 -8 -31 -7 -14 2 -25 0 -25
-4 0 -4 -6 -8 -12 -8 -7 0 -25 -4 -41 -8 -27 -7 -27 -7 -17 21 8 21 8 30 0 32
-7 3 -8 8 -1 16 5 6 11 43 13 81 2 39 7 75 10 81 4 5 3 16 -2 24 -5 8 -5 22 1
32 5 10 7 18 3 18 -3 0 -1 6 5 14 8 9 8 16 2 20 -6 4 -8 12 -6 19 3 7 7 39 10
72 8 84 13 126 20 155 3 14 7 34 9 45 2 11 13 65 25 120 13 55 25 111 27 124
3 14 7 28 9 31 5 8 17 68 18 88 0 6 3 12 7 12 3 0 7 8 8 18 1 9 3 26 4 37 2
11 8 23 15 28 7 4 10 14 7 22 -4 8 -1 15 6 15 6 0 8 5 5 10 -4 6 -1 17 5 25 7
8 9 15 5 15 -4 0 -2 6 4 13 6 8 8 17 4 20 -3 4 1 9 10 13 9 3 14 14 12 25 -2
10 1 19 6 19 6 0 7 5 4 10 -3 6 -2 10 4 10 5 0 8 9 6 20 -2 11 1 20 7 20 5 0
8 7 4 15 -3 8 -1 15 4 15 8 0 26 58 22 73 -2 5 2 6 8 2 9 -5 12 7 9 31 0 4 3
10 8 13 6 3 24 33 42 66 18 33 40 66 49 73 9 6 12 12 8 12 -4 0 11 23 34 50
23 28 38 50 33 50 -4 1 3 7 17 15 14 8 21 14 16 15 -5 0 1 9 14 20 13 11 20
20 16 20 -4 0 4 12 18 28 118 126 153 161 159 155 4 -3 7 -1 7 5 0 14 53 72
66 72 5 0 15 9 22 20 7 11 17 20 23 20 5 0 20 11 33 25 13 14 26 25 30 25 9 0
70 43 74 53 2 4 10 7 18 7 8 0 14 4 14 9 0 5 11 12 25 15 14 4 25 11 25 17 0
6 5 7 10 4 6 -3 10 -1 10 4 0 6 9 11 21 11 11 0 17 5 14 10 -3 6 1 10 9 10 9
0 16 6 16 13 0 9 2 9 9 -1 7 -11 9 -10 15 3 3 9 10 14 15 11 5 -4 11 -2 13 3
1 5 10 11 18 13 21 5 39 22 32 32 -3 5 0 6 6 2 12 -7 141 51 154 69 4 6 8 6 8
1 0 -5 6 -4 13 2 6 6 15 11 19 11 5 1 32 12 60 25 29 14 71 32 93 41 22 9 49
20 60 25 55 23 91 35 98 32 4 -1 7 3 7 9 0 5 4 8 9 4 5 -3 13 0 16 6 4 5 13 8
21 5 8 -3 14 -2 14 3 0 5 15 15 33 22 37 15 38 16 97 70 26 24 40 43 33 46 -7
2 -9 11 -6 19 3 8 0 20 -6 28 -7 8 -10 18 -9 23 2 6 -25 38 -59 73 -35 34 -63
59 -63 54 0 -5 -5 -1 -11 9 -5 9 -17 17 -25 17 -9 0 -12 5 -8 13 4 6 4 9 -1 5
-4 -4 -22 1 -40 12 -18 11 -35 17 -38 13 -4 -3 -7 2 -7 12 0 10 -3 15 -7 12
-3 -4 -15 0 -25 10 -10 9 -18 13 -18 9 0 -4 -7 0 -16 8 -8 9 -24 16 -33 16
-10 0 -24 7 -31 15 -7 8 -19 15 -26 15 -8 0 -14 4 -14 8 0 5 -24 22 -52 37
-29 16 -56 33 -59 38 -4 5 -11 7 -17 3 -5 -3 -13 1 -16 10 -3 8 -10 13 -15 10
-5 -4 -11 -3 -13 1 -1 5 -34 23 -73 42 -38 18 -82 40 -97 48 -16 8 -28 11 -28
7 0 -5 -5 -3 -12 4 -7 7 -20 12 -30 12 -10 0 -18 4 -18 8 0 5 -7 9 -15 10 -8
1 -22 3 -30 4 -8 1 -15 5 -15 10 0 4 -10 8 -23 8 -13 0 -27 4 -32 9 -6 5 -21
11 -35 13 -14 1 -27 6 -30 10 -3 4 -17 8 -30 11 -23 3 -107 26 -175 47 -16 5
-46 11 -65 14 -19 3 -46 8 -60 11 -37 9 -71 15 -110 20 -19 2 -53 7 -75 10
-22 3 -65 8 -95 10 -84 7 -130 14 -141 20 -5 4 -9 2 -9 -2 0 -8 -37 -7 -125 1
-22 3 -44 5 -49 5 -12 1 18 29 59 55 16 11 34 23 40 28 5 5 21 17 34 28 13 11
28 17 32 14 5 -3 9 1 9 8 0 7 16 22 35 32 19 11 35 23 35 28 0 4 6 8 13 8 7 0
22 8 33 18 10 9 40 31 66 47 27 17 48 34 48 38 0 5 5 5 10 2 6 -3 10 -1 10 4
0 6 7 11 15 11 8 0 15 4 15 9 0 5 16 16 35 25 19 9 48 28 65 42 16 14 30 23
30 20 0 -3 9 3 20 14 12 12 26 18 32 14 7 -4 8 -3 4 4 -4 7 -1 12 8 12 9 0 16
5 16 12 0 6 3 8 6 5 4 -4 19 4 35 17 15 13 42 30 59 37 16 8 30 18 30 22 0 5
5 5 10 2 6 -3 10 -2 10 4 0 13 55 42 64 34 3 -4 6 -1 6 5 0 6 16 16 35 23 19
7 35 17 35 21 0 4 6 8 13 8 7 0 38 13 70 30 31 16 57 27 57 23 0 -3 8 1 18 9
9 8 32 21 50 29 17 8 32 17 32 21 0 4 9 5 20 3 11 -2 20 1 20 6 0 6 5 7 10 4
6 -3 10 -2 10 4 0 5 17 15 38 22 20 6 39 15 42 18 7 10 133 71 144 70 5 0 12
3 15 8 3 4 20 15 36 23 42 22 59 60 43 97 -6 15 -11 31 -10 36 1 4 -3 7 -8 7
-5 0 -9 3 -8 8 7 25 -81 132 -109 132 -7 0 -13 3 -13 8 0 4 -12 12 -27 18 -40
16 -67 27 -75 29 -5 2 -10 4 -13 5 -3 1 -9 4 -15 5 -5 1 -11 3 -12 5 -2 1 -19
4 -38 7 -19 2 -40 9 -47 14 -7 7 -13 5 -16 -3 -4 -10 -6 -10 -6 0 -1 6 -10 12
-21 12 -11 0 -20 4 -20 9 0 5 -8 8 -17 6 -10 -1 -23 1 -28 6 -6 4 -22 10 -35
13 -36 7 -60 13 -99 25 -18 6 -36 10 -40 9 -3 0 -8 1 -11 2 -11 4 -46 11 -67
13 -13 1 -23 6 -23 10 0 5 -8 7 -17 6 -10 -1 -20 0 -23 1 -3 1 -14 3 -25 5
-66 10 -103 19 -168 41 -39 13 -73 25 -74 25 -2 0 -8 1 -15 4 -62 19 -123 33
-130 29 -4 -3 -8 -1 -8 5 0 9 -16 14 -76 25 -12 3 -43 12 -69 21 -27 9 -54 14
-61 11 -7 -3 -14 -1 -16 4 -2 5 -20 11 -40 12 -21 2 -38 8 -38 13 0 6 -10 11
-22 12 -43 3 -103 15 -113 23 -5 4 -18 6 -27 5 -10 -2 -18 0 -18 4 0 6 -18 10
-62 12 -10 0 -20 4 -23 9 -3 5 -12 7 -20 3 -8 -3 -15 -1 -15 3 0 5 -17 10 -37
12 -20 1 -40 7 -44 13 -5 8 -8 8 -13 0 -4 -6 -13 -8 -19 -4 -13 8 -29 12 -67
18 -14 1 -25 4 -25 5 0 3 -46 11 -67 11 -10 0 -18 5 -18 11 0 6 -6 6 -15 -2
-8 -7 -15 -8 -15 -3 0 8 -35 14 -97 17 -13 1 -23 4 -23 7 0 3 -6 6 -12 6 -7 0
-38 4 -68 8 -30 4 -64 9 -75 10 -11 1 -20 3 -20 5 0 1 -18 3 -40 5 -22 1 -40
4 -40 5 0 1 -11 3 -25 5 -14 1 -52 6 -85 9 -119 14 -141 16 -232 20 -51 3 -96
6 -100 9 -12 7 -155 10 -438 9 -329 -1 -385 -2 -411 -12 -13 -5 -26 -4 -33 3
-6 6 -11 7 -11 1 0 -5 -12 -9 -27 -10 -32 -1 -181 -14 -233 -21 -58 -7 -103
-13 -140 -18 -19 -3 -48 -7 -65 -9 -16 -2 -38 -7 -47 -11 -36 -14 -16 11 37
48 30 21 55 42 55 48 0 6 4 8 9 5 5 -3 19 2 32 12 13 10 39 24 57 31 17 8 32
17 32 22 0 5 9 9 20 9 11 0 20 4 20 10 0 5 18 15 40 21 22 7 40 16 40 21 0 4
4 8 9 8 5 0 26 8 47 17 22 9 42 16 47 15 4 -1 7 3 7 9 0 5 5 7 10 4 6 -3 10
-1 10 4 0 6 8 11 18 11 10 0 23 5 30 12 7 7 12 8 12 4 0 -5 7 -3 15 4 8 7 15
9 15 5 0 -4 7 -2 15 5 8 6 19 9 25 5 5 -3 10 -1 10 4 0 6 4 11 9 11 5 0 22 5
38 12 15 6 30 12 33 13 40 12 135 84 113 85 -4 0 1 7 11 15 11 8 17 18 13 21
-4 4 -2 13 4 21 9 10 8 13 0 13 -7 0 -10 4 -7 9 11 16 -5 39 -35 51 -16 7 -29
16 -29 21 0 5 -7 9 -15 9 -8 0 -15 4 -15 8 0 4 -16 14 -35 21 -19 7 -35 16
-35 20 0 3 -10 7 -22 8 -11 1 -24 6 -27 11 -8 11 -118 39 -186 48 -61 7 -101
14 -150 25 -56 12 -100 18 -165 23 -25 2 -45 4 -45 6 0 3 -122 9 -252 12 -62
1 -113 5 -113 8 0 6 -260 7 -267 0z m-7353 -1260 c0 -5 -4 -10 -10 -10 -5 0
-10 5 -10 10 0 6 5 10 10 10 6 0 10 -4 10 -10z"/>
</g>
</svg>
